<svg aria-hidden="true" focusable="false" id="Layer_1" xmlns="http://www.w3.org/2000/svg" version="1.1" viewBox="0 0 91.5 83.2">
  <path d="M34.3,23.2l6.7-1.9v-3.1l-8.6,2.4.7.7c.5.5.9,1.2,1.2,1.8Z"/>
  <path d="M58.3,21.4l.7-.7-7.9-2.2v3.1l6,1.7c.3-.7.6-1.3,1.2-1.8Z"/>
  <path d="M82.8,27.8c-.2-.3-.6-.7-1.1-.8l-11.5-3.3-2.4,2.4,8.1,2.3-30.2,8.3-30.2-8.3,8.1-2.3-2.4-2.4-11.3,3.2c-.5.2-.9.4-1.3.8L.2,39.1c-.2.3-.3,1-.2,1.3,0,.3.5.8.9,1l7.6,2.6v20.4c0,.6.3,1.2.9,1.5l35.2,17.1c.8.3,1.3.3,2.1,0l35.2-17.1c.6-.2.9-.8.9-1.5v-20.4s7.8-2.7,7.8-2.7l.8-.9v-.9s-8.7-11.7-8.7-11.7ZM3.9,39.2l6.7-9,32.6,9-8.5,10.5L3.9,39.2ZM11.5,63.5v-18.5s23.1,7.8,23.1,7.8c.7.2,1.3,0,1.8-.6l7.8-9.6v36.4s-32.8-15.6-32.8-15.6ZM47.2,79v-36.4s7.8,9.6,7.8,9.6c.5.6,1.1.8,1.8.6l23.1-7.8v18.5s-32.8,15.6-32.8,15.6ZM56.8,49.7l-8.5-10.5,32.6-9,6.7,9-30.8,10.5Z"/>
  <path d="M61,25.8c.2.2.6.4.9.4s.6-.1.9-.4l.8-.8h0l2.4-2.4,10.8-10.8c.5-.5.5-1.3,0-1.8-.5-.5-1.3-.5-1.8,0l-11.8,11.8-2.2,2.2c0,0-.1.1-.2.2h0c-.3.5-.3,1.2.2,1.6Z"/>
  <path d="M28.7,25.8c.2.2.6.4.9.4s.6-.1.9-.4c.5-.5.5-1.3,0-1.8l-14-14c-.5-.5-1.3-.5-1.8,0-.5.5-.5,1.3,0,1.8l14,14Z"/>
  <path d="M46.1,23.8c.7,0,1.3-.6,1.3-1.3V1.3c0-.7-.6-1.3-1.3-1.3s-1.3.6-1.3,1.3v21.3c0,.7.6,1.3,1.3,1.3Z"/>
</svg>