<svg xmlns="http://www.w3.org/2000/svg" viewBox="0 0 510.33 115.97"><defs><style>.cls-3{fill:#757679}</style></defs><path d="M110.14 8.26H9.55v99.45h100.59V8.26ZM93.12 85.48c-3.1-.08-3.97-.17-6.58-.17s-1.95.09-6.45.17v-.71c1.93 0-.89-4.51-1.28-5.41L60.85 47.08h-.51s-17 30.62-17.66 31.76c-1.37 2.46-3.29 5.99-1.59 5.99v.65c-3.35-.08-3.36-.17-6.63-.17s-3.72.09-6.5.17v-.65c1.35 0 2.33-2.83 4.56-6.46 1.13-2 27.81-49.47 27.81-49.47h.53l28.48 50.81c1.66 2.87 2.65 5.12 3.78 5.12v.65Z" style="fill:#00adbb"/><path d="m169.05 81.83-3.7-9.35h-18.43l-3.5 9.35h-12.51l19.98-47.62h11.17l19.78 47.62h-12.78Zm-12.78-34.91-6.05 16.34h11.97l-5.92-16.34ZM216.37 81.9c-3.12.76-6.51 1.14-10.19 1.14s-7.32-.61-10.53-1.82c-3.21-1.21-5.96-2.91-8.27-5.11-2.31-2.2-4.11-4.83-5.41-7.9-1.3-3.07-1.95-6.49-1.95-10.26s.66-7.26 1.98-10.36c1.32-3.09 3.15-5.73 5.48-7.9 2.33-2.17 5.07-3.84 8.21-5.01 3.14-1.17 6.52-1.75 10.16-1.75s7.26.57 10.49 1.72c3.23 1.14 5.85 2.68 7.87 4.61l-7.26 8.27c-1.12-1.3-2.6-2.36-4.44-3.2-1.84-.83-3.92-1.24-6.26-1.24-2.02 0-3.88.37-5.58 1.11-1.7.74-3.18 1.77-4.44 3.09-1.26 1.32-2.23 2.89-2.93 4.71-.7 1.82-1.04 3.8-1.04 5.95s.31 4.22.94 6.05c.63 1.84 1.56 3.42 2.79 4.74 1.23 1.32 2.76 2.35 4.57 3.09 1.82.74 3.89 1.11 6.22 1.11 1.35 0 2.62-.1 3.83-.3 1.21-.2 2.33-.53 3.36-.97v-8.68h-9.08v-9.28h19.64v25.22c-2.33 1.21-5.06 2.2-8.17 2.96ZM242.24 44.03v9.82h18.43v9.48h-18.43v18.5h-11.37V34.21h31.34v9.82h-19.98ZM278.15 39.85c0 .85-.17 1.65-.5 2.39-.34.74-.78 1.38-1.34 1.92s-1.23.96-2.02 1.28c-.79.32-1.6.47-2.46.47-1.79 0-3.3-.59-4.51-1.78s-1.82-2.61-1.82-4.27c0-.81.16-1.58.47-2.32.31-.74.76-1.38 1.35-1.92.58-.54 1.25-.98 2.02-1.31.76-.34 1.59-.5 2.49-.5s1.67.16 2.46.47c.78.31 1.46.74 2.02 1.28s1.01 1.18 1.34 1.92c.34.74.5 1.54.5 2.39Zm-11.84 41.98v-33.5h11.03v33.5h-11.03ZM304.99 81.83v-18.3c0-.94-.08-1.84-.23-2.69-.16-.85-.42-1.6-.77-2.25-.36-.65-.86-1.17-1.51-1.55-.65-.38-1.47-.57-2.45-.57s-1.85.19-2.59.57c-.74.38-1.36.91-1.85 1.58s-.86 1.45-1.11 2.32c-.25.87-.37 1.78-.37 2.72v18.16h-11.1v-33.5h10.69v4.64h.13c.4-.72.93-1.42 1.58-2.12a9.43 9.43 0 0 1 2.29-1.78c.88-.49 1.83-.9 2.86-1.21 1.03-.31 2.13-.47 3.3-.47 2.24 0 4.15.4 5.72 1.21 1.57.81 2.84 1.85 3.8 3.13.96 1.28 1.66 2.75 2.08 4.41.42 1.66.64 3.32.64 4.98v20.72H305ZM321.6 52.91c1.97-1.88 4.27-3.3 6.9-4.24 2.62-.94 5.3-1.41 8.04-1.41s5.21.35 7.16 1.04c1.95.7 3.53 1.77 4.74 3.23 1.21 1.46 2.1 3.3 2.66 5.52.56 2.22.84 4.85.84 7.9v16.88h-10.09v-3.56h-.2c-.85 1.39-2.14 2.47-3.87 3.23-1.73.76-3.6 1.14-5.62 1.14-1.34 0-2.74-.18-4.17-.54-1.44-.36-2.75-.94-3.94-1.75s-2.16-1.88-2.93-3.23c-.76-1.34-1.14-3-1.14-4.98 0-2.42.66-4.37 1.98-5.85 1.32-1.48 3.03-2.62 5.11-3.43 2.08-.81 4.41-1.35 6.96-1.61 2.56-.27 5.04-.4 7.47-.4v-.54c0-1.66-.58-2.88-1.75-3.67-1.17-.78-2.6-1.18-4.3-1.18-1.57 0-3.08.34-4.54 1.01-1.46.67-2.7 1.48-3.73 2.42l-5.58-5.99Zm20.25 14.32h-1.41c-1.21 0-2.43.06-3.67.17-1.23.11-2.33.33-3.3.64-.97.31-1.76.77-2.39 1.38-.63.61-.94 1.4-.94 2.39 0 .63.14 1.17.44 1.61.29.45.66.81 1.11 1.08.45.27.96.46 1.55.57s1.14.17 1.68.17c2.24 0 3.96-.62 5.15-1.85 1.19-1.23 1.78-2.9 1.78-5.01v-1.14ZM379.05 81.83v-18.3c0-.94-.08-1.84-.23-2.69-.16-.85-.42-1.6-.77-2.25-.36-.65-.86-1.17-1.51-1.55-.65-.38-1.47-.57-2.45-.57s-1.85.19-2.59.57c-.74.38-1.36.91-1.85 1.58s-.86 1.45-1.11 2.32c-.25.87-.37 1.78-.37 2.72v18.16h-11.1v-33.5h10.69v4.64h.13c.4-.72.93-1.42 1.58-2.12a9.43 9.43 0 0 1 2.29-1.78c.88-.49 1.83-.9 2.86-1.21 1.03-.31 2.13-.47 3.3-.47 2.24 0 4.15.4 5.72 1.21 1.57.81 2.84 1.85 3.8 3.13.96 1.28 1.66 2.75 2.09 4.41.42 1.66.64 3.32.64 4.98v20.72h-11.1ZM418.54 59.16c-.63-.81-1.48-1.46-2.56-1.95s-2.17-.74-3.3-.74-2.22.23-3.16.71-1.75 1.1-2.42 1.88c-.67.78-1.2 1.69-1.58 2.72-.38 1.03-.57 2.13-.57 3.3s.18 2.27.54 3.3c.36 1.03.89 1.94 1.58 2.72.69.79 1.52 1.4 2.49 1.85.96.45 2.05.67 3.26.67 1.12 0 2.23-.21 3.33-.64 1.1-.43 1.98-1.04 2.66-1.85l6.12 7.47c-1.39 1.34-3.18 2.4-5.38 3.16-2.2.76-4.53 1.14-7 1.14-2.65 0-5.12-.4-7.41-1.21-2.29-.81-4.29-1.98-5.98-3.53-1.69-1.55-3.02-3.42-3.99-5.62-.97-2.2-1.45-4.69-1.45-7.47s.48-5.2 1.45-7.4 2.3-4.07 3.99-5.62c1.69-1.55 3.68-2.73 5.98-3.56 2.29-.83 4.74-1.24 7.34-1.24 1.21 0 2.41.11 3.6.34 1.19.22 2.33.53 3.43.91s2.11.85 3.03 1.41c.92.56 1.72 1.18 2.39 1.85l-6.39 7.4ZM440.32 39.85c0 .85-.17 1.65-.5 2.39-.34.74-.78 1.38-1.34 1.92s-1.23.96-2.02 1.28c-.78.32-1.6.47-2.45.47-1.79 0-3.3-.59-4.51-1.78s-1.82-2.61-1.82-4.27c0-.81.16-1.58.47-2.32.31-.74.76-1.38 1.35-1.92.58-.54 1.25-.98 2.02-1.31.76-.34 1.59-.5 2.49-.5.85 0 1.67.16 2.45.47.78.31 1.46.74 2.02 1.28s1.01 1.18 1.34 1.92c.34.74.5 1.54.5 2.39Zm-11.84 41.98v-33.5h11.03v33.5h-11.03ZM444.7 52.91c1.97-1.88 4.27-3.3 6.9-4.24 2.62-.94 5.3-1.41 8.04-1.41s5.21.35 7.16 1.04c1.95.7 3.53 1.77 4.74 3.23 1.21 1.46 2.1 3.3 2.66 5.52.56 2.22.84 4.85.84 7.9v16.88h-10.09v-3.56h-.2c-.85 1.39-2.14 2.47-3.87 3.23-1.73.76-3.6 1.14-5.62 1.14-1.34 0-2.74-.18-4.17-.54-1.44-.36-2.75-.94-3.94-1.75s-2.16-1.88-2.93-3.23c-.76-1.34-1.14-3-1.14-4.98 0-2.42.66-4.37 1.98-5.85 1.32-1.48 3.03-2.62 5.11-3.43 2.08-.81 4.41-1.35 6.96-1.61 2.56-.27 5.04-.4 7.47-.4v-.54c0-1.66-.58-2.88-1.75-3.67-1.17-.78-2.6-1.18-4.3-1.18-1.57 0-3.08.34-4.54 1.01-1.46.67-2.7 1.48-3.73 2.42l-5.58-5.99Zm20.24 14.32h-1.41c-1.21 0-2.43.06-3.67.17-1.23.11-2.33.33-3.3.64-.97.31-1.76.77-2.39 1.38-.63.61-.94 1.4-.94 2.39 0 .63.14 1.17.44 1.61.29.45.66.81 1.11 1.08.45.27.96.46 1.55.57s1.14.17 1.68.17c2.24 0 3.96-.62 5.15-1.85 1.19-1.23 1.78-2.9 1.78-5.01v-1.14ZM480.28 81.83v-48.9h10.8v48.9h-10.8ZM495.28 77.59c0-.58.11-1.12.33-1.63.22-.51.52-.95.9-1.33.38-.37.83-.67 1.34-.89.51-.22 1.05-.33 1.63-.33s1.12.11 1.63.33c.51.22.95.52 1.34.89.38.37.68.82.9 1.33.22.51.33 1.05.33 1.63s-.11 1.12-.33 1.62c-.22.5-.52.94-.9 1.32-.38.37-.83.67-1.34.88-.51.22-1.05.32-1.63.32a4.23 4.23 0 0 1-2.97-1.2 4.07 4.07 0 0 1-.9-1.32c-.22-.5-.33-1.04-.33-1.62Zm.66 0c0 .48.09.93.28 1.36.18.43.44.81.76 1.13.32.33.69.58 1.12.76.43.18.89.28 1.38.28s.95-.09 1.38-.28c.43-.18.8-.44 1.12-.76.32-.33.57-.7.76-1.13.18-.43.28-.88.28-1.36s-.09-.95-.28-1.38c-.18-.43-.44-.8-.76-1.12-.32-.32-.69-.57-1.12-.76-.43-.18-.89-.28-1.38-.28s-.95.09-1.38.28c-.43.18-.8.44-1.12.76s-.57.69-.76 1.12c-.18.43-.28.89-.28 1.38Zm1.9-2.38h1.66c.22 0 .44.02.64.07.21.05.4.13.56.24s.3.25.4.42c.1.17.15.39.15.64 0 .34-.1.62-.29.84-.2.22-.46.36-.79.43l1.27 2.06h-1.03l-1.11-1.97h-.61v1.97h-.85v-4.72Zm1.53 2.06c.25 0 .48-.05.7-.14.22-.09.33-.28.33-.56 0-.26-.1-.43-.3-.52-.2-.09-.41-.13-.64-.13h-.77v1.34h.68Z" class="cls-3"/></svg>